HIERARCHY
ROOT Hips
{
	OFFSET 0.00000 0.00000 0.00000
	CHANNELS 6 Xposition Yposition Zposition Zrotation Yrotation Xrotation 
	JOINT LHipJoint
	{
		OFFSET 0 0 0
		CHANNELS 3 Zrotation Yrotation Xrotation
		JOINT LeftHip
		{
			OFFSET 1.44960 -1.75505 0.85172
			CHANNELS 3 Zrotation Yrotation Xrotation
			JOINT LeftKnee
			{
				OFFSET 2.40573 -6.60971 0.00000
				CHANNELS 3 Zrotation Yrotation Xrotation
				JOINT LeftAnkle
				{
					OFFSET 2.58773 -7.10974 0.00000
					CHANNELS 3 Zrotation Yrotation Xrotation
					JOINT LeftToe
					{
						OFFSET 0.18252 -0.50147 1.77316
						CHANNELS 3 Zrotation Yrotation Xrotation
						End Site
						{
							OFFSET 0.00000 -0.00000 0.92990
						}
					}
				}
			}
		}
	}
	JOINT RHipJoint
	{
		OFFSET 0 0 0
		CHANNELS 3 Zrotation Yrotation Xrotation
		JOINT RightHip
		{
			OFFSET -1.40744 -1.75505 0.85172
			CHANNELS 3 Zrotation Yrotation Xrotation
			JOINT RightKnee
			{
				OFFSET -2.43714 -6.69600 0.00000
				CHANNELS 3 Zrotation Yrotation Xrotation
				JOINT RightAnkle
				{
					OFFSET -2.51650 -6.91404 0.00000
					CHANNELS 3 Zrotation Yrotation Xrotation
					JOINT RightToe
					{
						OFFSET -0.25383 -0.69740 1.96384
						CHANNELS 3 Zrotation Yrotation Xrotation
						End Site
						{
							OFFSET -0.00000 -0.00000 1.04244
						}
					}
				}
			}
		}
	}
	JOINT lowerback
	{
		OFFSET 0 0 0
		CHANNELS 3 Zrotation Yrotation Xrotation
		JOINT Chest
		{
			OFFSET 0.00579 2.14458 -0.24367
			CHANNELS 3 Zrotation Yrotation Xrotation
			JOINT Chest2
			{
				OFFSET 0.05899 2.16316 -0.04515
				CHANNELS 3 Zrotation Yrotation Xrotation
				JOINT lowerneck
				{
					OFFSET 0 0 0
					CHANNELS 3 Zrotation Yrotation Xrotation
					JOINT Neck
					{
						OFFSET -0.01650 1.59577 0.24841
						CHANNELS 3 Zrotation Yrotation Xrotation
						JOINT Head
						{
							OFFSET -0.01016 1.63072 -0.17782
							CHANNELS 3 Zrotation Yrotation Xrotation
							End Site
							{
								OFFSET -0.00250 1.64111 -0.08717
							}
						}
					}
				}
				JOINT LeftCollar
				{
					OFFSET 0 0 0
					CHANNELS 3 Zrotation Yrotation Xrotation
					JOINT LeftShoulder
					{
						OFFSET 3.17745 0.95174 -0.45729
CHANNELS 3 Zrotation Xrotation Yrotation
						JOINT LeftElbow
						{
OFFSET 0 -4.934850 0.000000
CHANNELS 3 Zrotation Xrotation Yrotation
							JOINT LeftWrist
							{
OFFSET 0 -3.417190 -0.000000
CHANNELS 3 Zrotation Xrotation Yrotation
								JOINT lhand
								{
									OFFSET 0 0 0
CHANNELS 3 Zrotation Xrotation Yrotation
									JOINT LFingers
									{
OFFSET 0 -0.624100 -0.000000
CHANNELS 3 Zrotation Xrotation Yrotation
										End Site
										{
OFFSET 0 -0.503170 -0.000000
										}
									}
								}
								JOINT LThumb
								{
OFFSET 0 0.000000 0.000000
CHANNELS 3 Zrotation Xrotation Yrotation
									End Site
									{
OFFSET 0 -0.510850 0.510850
									}
								}
							}
						}
					}
				}
				JOINT RightCollar
				{
					OFFSET 0 0 0
					CHANNELS 3 Zrotation Yrotation Xrotation
					JOINT RightShoulder
					{
						OFFSET -2.87924 1.13038 -0.75204
CHANNELS 3 Zrotation Xrotation Yrotation
						JOINT RightElbow
						{
OFFSET 0 -5.220340 0.000000
CHANNELS 3 Zrotation Xrotation Yrotation
							JOINT RightWrist
							{
OFFSET 0 -3.418090 -0.000000
CHANNELS 3 Zrotation Xrotation Yrotation
								JOINT rhand
								{
									OFFSET 0 0 0
CHANNELS 3 Zrotation Xrotation Yrotation
									JOINT RFingers
									{
OFFSET 0 -0.775340 -0.000000
CHANNELS 3 Zrotation Xrotation Yrotation
										End Site
										{
OFFSET 0 -0.625100 -0.000000
										}
									}
								}
								JOINT RThumb
								{
OFFSET 0 0.000000 0.000000
CHANNELS 3 Zrotation Xrotation Yrotation
									End Site
									{
OFFSET 0 -0.634640 0.634640
									}
								}
							}
						}
					}
				}
			}
		}
	}
}
MOTION
Frames: 4
Frame Time: 0.008333333333333333
-0.161300 17.515300 10.394500 -5.823000 -6.815300 6.851800 0.000000 0.000000 0.000000 -11.106000 -4.563000 -3.083200 0.885600 5.998900 16.781200 0.681700 5.668000 -18.676500 0.007900 -0.572200 -1.572400 0.000000 0.000000 0.000000 22.001700 6.635200 0.628800 -0.122300 -2.254500 6.209700 0.238000 -12.066200 -13.425600 -0.114000 -2.176800 5.994600 -1.749000 -4.025400 -2.659400 6.112700 -5.384400 -1.741400 7.147500 -2.698600 0.445300 -10.205000 -11.416800 -2.434100 5.232400 -16.703200 27.442400 1.753900 -8.341100 10.512900 -0.000000 0.000000 0.000000 -1.984800 3.617900 -17.968200 16.745300 -26.520700 3.972900 1.707700 6.206800 -44.627900 0.000000 0.000000 0.000000 -7.125000 0.000000 0.000000 -51.233000 67.974600 31.293600 -0.000000 0.000000 0.000000 -10.445900 4.779100 18.509600 -15.553400 -24.911400 -3.455700 -19.481500 -29.155800 -18.186400 0.000000 0.000000 0.000000 7.125000 0.000000 -0.000000 5.617800 10.839900 4.483200
-0.175068 17.515198 10.406229 -5.891825 -6.660123 6.947771 0.000000 0.000000 0.000000 -10.956539 -4.570194 -3.199003 0.883674 5.992372 16.762287 0.419056 6.811354 -16.593288 0.126537 2.291861 6.313004 0.000000 0.000000 0.000000 22.169567 6.482104 0.645397 -0.114205 -2.178942 6.000502 0.245644 -12.159681 -13.457278 -0.135867 -2.374024 6.540683 -1.460011 -3.987875 -2.558701 5.900599 -5.322940 -2.021927 6.781825 -2.653313 0.044290 -10.633574 -11.980200 -2.176404 5.605183 -17.396545 25.625380 1.900858 -8.686470 9.938871 0.000000 0.000000 0.000000 -1.724131 3.929621 -17.926696 16.303233 -25.929965 3.777653 1.385318 6.878489 -44.505013 0.000000 0.000000 0.000000 -7.125000 0.000000 0.000000 -51.282963 67.796607 31.139814 0.000000 0.000000 0.000000 -9.693538 4.804680 15.957846 -14.804736 -23.873373 -3.146517 -19.569936 -27.424512 -17.718544 0.000000 0.000000 0.000000 7.125000 0.000000 0.000000 5.533707 11.316289 4.361448
-0.177094 17.516088 10.430694 -5.874384 -6.528500 7.022889 0.000000 0.000000 0.000000 -10.967589 -4.669265 -3.202533 0.879243 5.977833 16.720080 0.696854 5.519117 -18.729861 0.018882 -0.887573 -2.439516 0.000000 0.000000 0.000000 22.145002 6.310917 0.734127 -0.104991 -2.089236 5.752267 0.260724 -12.255356 -13.348950 -0.128961 -2.309256 6.361357 -1.024854 -3.917614 -2.765134 5.593422 -5.230190 -2.151756 6.205275 -2.603546 -0.053103 -10.910912 -12.229131 -1.495355 6.651711 -17.801285 23.265468 2.329343 -8.849103 9.139188 0.000000 0.000000 0.000000 -1.267515 4.211154 -18.871645 15.845080 -25.309999 3.579479 1.896463 7.259364 -44.142843 0.000000 0.000000 0.000000 -7.125000 0.000000 0.000000 -50.131320 67.728562 30.239564 0.000000 0.000000 0.000000 -9.343889 4.927041 15.176639 -14.212755 -23.038021 -2.910871 -19.760310 -27.799629 -17.739129 0.000000 0.000000 0.000000 7.125000 0.000000 0.000000 5.409571 11.271257 4.267592
-0.177049 17.516566 10.448471 -5.746762 -6.394099 7.096639 0.000000 0.000000 0.000000 -11.093330 -4.877856 -3.069610 0.858293 5.908009 16.517661 0.702451 5.422069 -18.719651 0.002903 -0.332643 -0.914072 0.000000 0.000000 0.000000 21.983480 6.212846 0.571313 -0.113107 -2.168005 5.970271 0.243419 -12.135878 -13.454433 -0.111719 -2.151794 5.925533 -0.741449 -3.859311 -2.865023 5.284078 -5.150592 -2.275745 5.722238 -2.560462 -0.187183 -11.046873 -12.571340 -1.451928 7.089449 -18.201745 21.610145 2.474682 -9.027436 8.653151 0.000000 0.000000 0.000000 -1.005800 4.389595 -19.314827 15.687087 -25.094554 3.512262 0.920409 6.972614 -44.767162 0.000000 0.000000 0.000000 -7.125000 0.000000 0.000000 -52.203815 67.810293 31.829479 0.000000 0.000000 0.000000 -8.933785 5.070416 13.947316 -13.584291 -22.137027 -2.669673 -19.918263 -27.406227 -17.671327 0.000000 0.000000 0.000000 7.125000 0.000000 0.000000 5.301675 11.322264 4.176126
